mtllib obj_mtl_texture_rgbwv.mtl
usemtl color_body
v 0.0 0.0 0.05
v 0.8 0.0 0.05
v 0.8 0.6 0.05
v 0.0 0.6 0.05
v 0.0 0.0 0.25
v 0.8 0.0 0.25
v 0.8 0.6 0.25
v 0.0 0.6 0.25
vt 0.0 0.0
vt 1.0 0.0
vt 1.0 1.0
vt 0.0 1.0
usemtl white_base
v 0.9 0.0 0.05
v 1.7 0.0 0.05
v 1.7 0.6 0.05
v 0.9 0.6 0.05
v 0.9 0.0 0.25
v 1.7 0.0 0.25
v 1.7 0.6 0.25
v 0.9 0.6 0.25
usemtl varnish_top
v 1.8 0.0 0.05
v 2.6 0.0 0.05
v 2.6 0.6 0.05
v 1.8 0.6 0.05
v 1.8 0.0 0.25
v 2.6 0.0 0.25
v 2.6 0.6 0.25
v 1.8 0.6 0.25
usemtl color_body
f 1/1 2/2 3/3
f 1/1 3/3 4/4
f 5/1 7/3 6/2
f 5/1 8/4 7/3
usemtl white_base
f 9 10 11
f 9 11 12
f 13 15 14
f 13 16 15
usemtl varnish_top
f 17 18 19
f 17 19 20
f 21 23 22
f 21 24 23
