# Rhino

mtllib 5mm.mtl
usemtl 自定义
v 0 120 0
v 0 120 5
v 70 120 0
v 70 120 5
v 17.5 120 0
v 35 120 0
v 52.5 120 0
v 52.5 120 5
v 35 120 5
v 17.5 120 5
v 70 120 0
v 70 120 5
v 70 100 0
v 70 100 5
v 70 110 0
v 70 110 5
v 70 100 0
v 70 100 5
v 0 100 0
v 0 100 5
v 52.5 100 0
v 35 100 0
v 17.5 100 0
v 17.5 100 5
v 35 100 5
v 52.5 100 5
v 0 100 0
v 0 100 5
v 0 120 0
v 0 120 5
v 0 110 0
v 0 110 5
v 0 120 0
v 0 100 0
v 70 120 0
v 70 100 0
v 17.5 120 0
v 35 120 0
v 52.5 120 0
v 70 110 0
v 35 100 0
v 0 110 0
v 52.5 100 0
v 17.5 100 0
v 0 120 5
v 0 100 5
v 70 120 5
v 70 100 5
v 17.5 120 5
v 35 120 5
v 52.5 120 5
v 70 110 5
v 35 100 5
v 0 110 5
v 52.5 100 5
v 17.5 100 5
vt 0 0
vt 0 0.15000000596046448
vt 0.3888888955116272 0
vt 0.3888888955116272 0.15000000596046448
vt 0.097222223877906799 0
vt 0.1944444477558136 0
vt 0.2916666567325592 0
vt 0.2916666567325592 0.15000000596046448
vt 0.1944444477558136 0.15000000596046448
vt 0.097222223877906799 0.15000000596046448
vt 0.3888888955116272 0
vt 0.3888888955116272 0.15000000596046448
vt 0.5 0
vt 0.5 0.15000000596046448
vt 0.4444444477558136 0
vt 0.4444444477558136 0.15000000596046448
vt 0.5 0
vt 0.5 0.15000000596046448
vt 0.8888888955116272 0
vt 0.8888888955116272 0.15000000596046448
vt 0.59722220897674561 0
vt 0.69444441795349121 0
vt 0.79166668653488159 0
vt 0.79166668653488159 0.15000000596046448
vt 0.69444441795349121 0.15000000596046448
vt 0.59722220897674561 0.15000000596046448
vt 0.8888888955116272 0
vt 0.8888888955116272 0.15000000596046448
vt 1 0
vt 1 0.15000000596046448
vt 0.94444441795349121 0
vt 0.94444441795349121 0.15000000596046448
vt 0 0
vt 0 1
vt 0.3888888955116272 0
vt 0.3888888955116272 1
vt 0.097222223877906799 0
vt 0.1944444477558136 0
vt 0.2916666567325592 0
vt 0.3888888955116272 0.5
vt 0.1944444477558136 1
vt 0 0.5
vt 0.2916666567325592 1
vt 0.097222223877906799 1
vt 0 0
vt 0 1
vt 0.3888888955116272 0
vt 0.3888888955116272 1
vt 0.097222223877906799 0
vt 0.1944444477558136 0
vt 0.2916666567325592 0
vt 0.3888888955116272 0.5
vt 0.1944444477558136 1
vt 0 0.5
vt 0.2916666567325592 1
vt 0.097222223877906799 1
vn 0 1 0
vn 0 1 0
vn 0 1 0
vn 0 1 0
vn 0 1 0
vn 0 1 0
vn 0 1 0
vn 0 1 0
vn 0 1 0
vn 0 1 0
vn 1 0 0
vn 1 0 0
vn 1 0 0
vn 1 0 0
vn 1 0 0
vn 1 0 0
vn 0 -1 0
vn 0 -1 0
vn 0 -1 0
vn 0 -1 0
vn 0 -1 0
vn 0 -1 0
vn 0 -1 0
vn 0 -1 0
vn 0 -1 0
vn 0 -1 0
vn -1 0 0
vn -1 0 0
vn -1 0 0
vn -1 0 0
vn -1 0 0
vn -1 0 0
vn 0 0 -1
vn 0 0 -1
vn 0 0 -1
vn 0 0 -1
vn 0 0 -1
vn 0 0 -1
vn 0 0 -1
vn 0 0 -1
vn 0 0 -1
vn 0 0 -1
vn 0 0 -1
vn 0 0 -1
vn 0 0 1
vn 0 0 1
vn 0 0 1
vn 0 0 1
vn 0 0 1
vn 0 0 1
vn 0 0 1
vn 0 0 1
vn 0 0 1
vn 0 0 1
vn 0 0 1
vn 0 0 1
f 5/5/5 1/1/1 2/2/2 10/10/10
f 10/10/10 9/9/9 6/6/6 5/5/5
f 3/3/3 7/7/7 8/8/8 4/4/4
f 7/7/7 6/6/6 9/9/9 8/8/8
f 12/12/12 16/16/16 15/15/15 11/11/11
f 13/13/13 15/15/15 16/16/16 14/14/14
f 21/21/21 17/17/17 18/18/18 26/26/26
f 26/26/26 25/25/25 22/22/22 21/21/21
f 19/19/19 23/23/23 24/24/24 20/20/20
f 23/23/23 22/22/22 25/25/25 24/24/24
f 28/28/28 32/32/32 31/31/31 27/27/27
f 29/29/29 31/31/31 32/32/32 30/30/30
f 42/42/42 33/33/33 37/37/37
f 42/42/42 37/37/37 38/38/38
f 34/34/34 42/42/42 44/44/44
f 42/42/42 41/41/41 44/44/44
f 40/40/40 42/42/42 38/38/38
f 40/40/40 39/39/39 35/35/35
f 42/42/42 40/40/40 41/41/41
f 40/40/40 43/43/43 41/41/41
f 40/40/40 36/36/36 43/43/43
f 39/39/39 40/40/40 38/38/38
f 54/54/54 49/49/49 45/45/45
f 54/54/54 50/50/50 49/49/49
f 46/46/46 56/56/56 54/54/54
f 54/54/54 56/56/56 53/53/53
f 52/52/52 50/50/50 54/54/54
f 52/52/52 47/47/47 51/51/51
f 54/54/54 53/53/53 52/52/52
f 52/52/52 53/53/53 55/55/55
f 52/52/52 55/55/55 48/48/48
f 51/51/51 50/50/50 52/52/52
usemtl lan
v 0 80 0
v 0 80 5
v 70 80 0
v 70 80 5
v 17.5 80 0
v 35 80 0
v 52.5 80 0
v 52.5 80 5
v 35 80 5
v 17.5 80 5
v 70 80 0
v 70 80 5
v 70 100 0
v 70 100 5
v 70 90 0
v 70 90 5
v 70 100 0
v 70 100 5
v 0 100 0
v 0 100 5
v 52.5 100 0
v 35 100 0
v 17.5 100 0
v 17.5 100 5
v 35 100 5
v 52.5 100 5
v 0 100 0
v 0 100 5
v 0 80 0
v 0 80 5
v 0 90 0
v 0 90 5
v 0 80 0
v 0 100 0
v 70 80 0
v 70 100 0
v 17.5 80 0
v 35 80 0
v 52.5 80 0
v 70 90 0
v 35 100 0
v 0 90 0
v 52.5 100 0
v 17.5 100 0
v 0 80 5
v 0 100 5
v 70 80 5
v 70 100 5
v 17.5 80 5
v 35 80 5
v 52.5 80 5
v 70 90 5
v 35 100 5
v 0 90 5
v 52.5 100 5
v 17.5 100 5
vt 0 0
vt 0 0.15000000596046448
vt 0.3888888955116272 0
vt 0.3888888955116272 0.15000000596046448
vt 0.097222223877906799 0
vt 0.1944444477558136 0
vt 0.2916666567325592 0
vt 0.2916666567325592 0.15000000596046448
vt 0.1944444477558136 0.15000000596046448
vt 0.097222223877906799 0.15000000596046448
vt 0.3888888955116272 0
vt 0.3888888955116272 0.15000000596046448
vt 0.5 0
vt 0.5 0.15000000596046448
vt 0.4444444477558136 0
vt 0.4444444477558136 0.15000000596046448
vt 0.5 0
vt 0.5 0.15000000596046448
vt 0.8888888955116272 0
vt 0.8888888955116272 0.15000000596046448
vt 0.59722220897674561 0
vt 0.69444441795349121 0
vt 0.79166668653488159 0
vt 0.79166668653488159 0.15000000596046448
vt 0.69444441795349121 0.15000000596046448
vt 0.59722220897674561 0.15000000596046448
vt 0.8888888955116272 0
vt 0.8888888955116272 0.15000000596046448
vt 1 0
vt 1 0.15000000596046448
vt 0.94444441795349121 0
vt 0.94444441795349121 0.15000000596046448
vt 0 0
vt 0 1
vt 0.3888888955116272 0
vt 0.3888888955116272 1
vt 0.097222223877906799 0
vt 0.1944444477558136 0
vt 0.2916666567325592 0
vt 0.3888888955116272 0.5
vt 0.1944444477558136 1
vt 0 0.5
vt 0.2916666567325592 1
vt 0.097222223877906799 1
vt 0 0
vt 0 1
vt 0.3888888955116272 0
vt 0.3888888955116272 1
vt 0.097222223877906799 0
vt 0.1944444477558136 0
vt 0.2916666567325592 0
vt 0.3888888955116272 0.5
vt 0.1944444477558136 1
vt 0 0.5
vt 0.2916666567325592 1
vt 0.097222223877906799 1
vn 0 -1 0
vn 0 -1 0
vn 0 -1 0
vn 0 -1 0
vn 0 -1 0
vn 0 -1 0
vn 0 -1 0
vn 0 -1 0
vn 0 -1 0
vn 0 -1 0
vn 1 0 0
vn 1 0 0
vn 1 0 0
vn 1 0 0
vn 1 0 0
vn 1 0 0
vn 0 1 0
vn 0 1 0
vn 0 1 0
vn 0 1 0
vn 0 1 0
vn 0 1 0
vn 0 1 0
vn 0 1 0
vn 0 1 0
vn 0 1 0
vn -1 0 0
vn -1 0 0
vn -1 0 0
vn -1 0 0
vn -1 0 0
vn -1 0 0
vn 0 0 -1
vn 0 0 -1
vn 0 0 -1
vn 0 0 -1
vn 0 0 -1
vn 0 0 -1
vn 0 0 -1
vn 0 0 -1
vn 0 0 -1
vn 0 0 -1
vn 0 0 -1
vn 0 0 -1
vn 0 0 1
vn 0 0 1
vn 0 0 1
vn 0 0 1
vn 0 0 1
vn 0 0 1
vn 0 0 1
vn 0 0 1
vn 0 0 1
vn 0 0 1
vn 0 0 1
vn 0 0 1
f 61/61/61 66/66/66 58/58/58 57/57/57
f 66/66/66 61/61/61 62/62/62 65/65/65
f 59/59/59 60/60/60 64/64/64 63/63/63
f 63/63/63 64/64/64 65/65/65 62/62/62
f 68/68/68 67/67/67 71/71/71 72/72/72
f 69/69/69 70/70/70 72/72/72 71/71/71
f 77/77/77 82/82/82 74/74/74 73/73/73
f 82/82/82 77/77/77 78/78/78 81/81/81
f 75/75/75 76/76/76 80/80/80 79/79/79
f 79/79/79 80/80/80 81/81/81 78/78/78
f 84/84/84 83/83/83 87/87/87 88/88/88
f 85/85/85 86/86/86 88/88/88 87/87/87
f 98/98/98 93/93/93 89/89/89
f 98/98/98 94/94/94 93/93/93
f 90/90/90 100/100/100 98/98/98
f 98/98/98 100/100/100 97/97/97
f 96/96/96 94/94/94 98/98/98
f 96/96/96 91/91/91 95/95/95
f 98/98/98 97/97/97 96/96/96
f 96/96/96 97/97/97 99/99/99
f 96/96/96 99/99/99 92/92/92
f 95/95/95 94/94/94 96/96/96
f 110/110/110 101/101/101 105/105/105
f 110/110/110 105/105/105 106/106/106
f 102/102/102 110/110/110 112/112/112
f 110/110/110 109/109/109 112/112/112
f 108/108/108 110/110/110 106/106/106
f 108/108/108 107/107/107 103/103/103
f 110/110/110 108/108/108 109/109/109
f 108/108/108 111/111/111 109/109/109
f 108/108/108 104/104/104 111/111/111
f 107/107/107 108/108/108 106/106/106
usemtl dian
v 0 120 0
v 0 120 5
v 70 120 0
v 70 120 5
v 17.5 120 0
v 35 120 0
v 52.5 120 0
v 52.5 120 5
v 35 120 5
v 17.5 120 5
v 70 120 0
v 70 120 5
v 70 140 0
v 70 140 5
v 70 130 0
v 70 130 5
v 70 140 0
v 70 140 5
v 0 140 0
v 0 140 5
v 52.5 140 0
v 35 140 0
v 17.5 140 0
v 17.5 140 5
v 35 140 5
v 52.5 140 5
v 0 140 0
v 0 140 5
v 0 120 0
v 0 120 5
v 0 130 0
v 0 130 5
v 0 120 0
v 0 140 0
v 70 120 0
v 70 140 0
v 17.5 120 0
v 35 120 0
v 52.5 120 0
v 70 130 0
v 35 140 0
v 0 130 0
v 52.5 140 0
v 17.5 140 0
v 0 120 5
v 0 140 5
v 70 120 5
v 70 140 5
v 17.5 120 5
v 35 120 5
v 52.5 120 5
v 70 130 5
v 35 140 5
v 0 130 5
v 52.5 140 5
v 17.5 140 5
vt 0 0
vt 0 0.15000000596046448
vt 0.3888888955116272 0
vt 0.3888888955116272 0.15000000596046448
vt 0.097222223877906799 0
vt 0.1944444477558136 0
vt 0.2916666567325592 0
vt 0.2916666567325592 0.15000000596046448
vt 0.1944444477558136 0.15000000596046448
vt 0.097222223877906799 0.15000000596046448
vt 0.3888888955116272 0
vt 0.3888888955116272 0.15000000596046448
vt 0.5 0
vt 0.5 0.15000000596046448
vt 0.4444444477558136 0
vt 0.4444444477558136 0.15000000596046448
vt 0.5 0
vt 0.5 0.15000000596046448
vt 0.8888888955116272 0
vt 0.8888888955116272 0.15000000596046448
vt 0.59722220897674561 0
vt 0.69444441795349121 0
vt 0.79166668653488159 0
vt 0.79166668653488159 0.15000000596046448
vt 0.69444441795349121 0.15000000596046448
vt 0.59722220897674561 0.15000000596046448
vt 0.8888888955116272 0
vt 0.8888888955116272 0.15000000596046448
vt 1 0
vt 1 0.15000000596046448
vt 0.94444441795349121 0
vt 0.94444441795349121 0.15000000596046448
vt 0 0
vt 0 1
vt 0.3888888955116272 0
vt 0.3888888955116272 1
vt 0.097222223877906799 0
vt 0.1944444477558136 0
vt 0.2916666567325592 0
vt 0.3888888955116272 0.5
vt 0.1944444477558136 1
vt 0 0.5
vt 0.2916666567325592 1
vt 0.097222223877906799 1
vt 0 0
vt 0 1
vt 0.3888888955116272 0
vt 0.3888888955116272 1
vt 0.097222223877906799 0
vt 0.1944444477558136 0
vt 0.2916666567325592 0
vt 0.3888888955116272 0.5
vt 0.1944444477558136 1
vt 0 0.5
vt 0.2916666567325592 1
vt 0.097222223877906799 1
vn 0 -1 0
vn 0 -1 0
vn 0 -1 0
vn 0 -1 0
vn 0 -1 0
vn 0 -1 0
vn 0 -1 0
vn 0 -1 0
vn 0 -1 0
vn 0 -1 0
vn 1 0 0
vn 1 0 0
vn 1 0 0
vn 1 0 0
vn 1 0 0
vn 1 0 0
vn 0 1 0
vn 0 1 0
vn 0 1 0
vn 0 1 0
vn 0 1 0
vn 0 1 0
vn 0 1 0
vn 0 1 0
vn 0 1 0
vn 0 1 0
vn -1 0 0
vn -1 0 0
vn -1 0 0
vn -1 0 0
vn -1 0 0
vn -1 0 0
vn 0 0 -1
vn 0 0 -1
vn 0 0 -1
vn 0 0 -1
vn 0 0 -1
vn 0 0 -1
vn 0 0 -1
vn 0 0 -1
vn 0 0 -1
vn 0 0 -1
vn 0 0 -1
vn 0 0 -1
vn 0 0 1
vn 0 0 1
vn 0 0 1
vn 0 0 1
vn 0 0 1
vn 0 0 1
vn 0 0 1
vn 0 0 1
vn 0 0 1
vn 0 0 1
vn 0 0 1
vn 0 0 1
f 117/117/117 122/122/122 114/114/114 113/113/113
f 122/122/122 117/117/117 118/118/118 121/121/121
f 115/115/115 116/116/116 120/120/120 119/119/119
f 119/119/119 120/120/120 121/121/121 118/118/118
f 124/124/124 123/123/123 127/127/127 128/128/128
f 125/125/125 126/126/126 128/128/128 127/127/127
f 133/133/133 138/138/138 130/130/130 129/129/129
f 138/138/138 133/133/133 134/134/134 137/137/137
f 131/131/131 132/132/132 136/136/136 135/135/135
f 135/135/135 136/136/136 137/137/137 134/134/134
f 140/140/140 139/139/139 143/143/143 144/144/144
f 141/141/141 142/142/142 144/144/144 143/143/143
f 154/154/154 149/149/149 145/145/145
f 154/154/154 150/150/150 149/149/149
f 146/146/146 156/156/156 154/154/154
f 154/154/154 156/156/156 153/153/153
f 152/152/152 150/150/150 154/154/154
f 152/152/152 147/147/147 151/151/151
f 154/154/154 153/153/153 152/152/152
f 152/152/152 153/153/153 155/155/155
f 152/152/152 155/155/155 148/148/148
f 151/151/151 150/150/150 152/152/152
f 166/166/166 157/157/157 161/161/161
f 166/166/166 161/161/161 162/162/162
f 158/158/158 166/166/166 168/168/168
f 166/166/166 165/165/165 168/168/168
f 164/164/164 166/166/166 162/162/162
f 164/164/164 163/163/163 159/159/159
f 166/166/166 164/164/164 165/165/165
f 164/164/164 167/167/167 165/165/165
f 164/164/164 160/160/160 167/167/167
f 163/163/163 164/164/164 162/162/162
usemtl huang
v 0 40 0
v 0 40 5
v 70 40 0
v 70 40 5
v 17.5 40 0
v 35 40 0
v 52.5 40 0
v 52.5 40 5
v 35 40 5
v 17.5 40 5
v 70 40 0
v 70 40 5
v 70 60 0
v 70 60 5
v 70 50 0
v 70 50 5
v 70 60 0
v 70 60 5
v 0 60 0
v 0 60 5
v 52.5 60 0
v 35 60 0
v 17.5 60 0
v 17.5 60 5
v 35 60 5
v 52.5 60 5
v 0 60 0
v 0 60 5
v 0 40 0
v 0 40 5
v 0 50 0
v 0 50 5
v 0 40 0
v 0 60 0
v 70 40 0
v 70 60 0
v 17.5 40 0
v 35 40 0
v 52.5 40 0
v 70 50 0
v 35 60 0
v 0 50 0
v 52.5 60 0
v 17.5 60 0
v 0 40 5
v 0 60 5
v 70 40 5
v 70 60 5
v 17.5 40 5
v 35 40 5
v 52.5 40 5
v 70 50 5
v 35 60 5
v 0 50 5
v 52.5 60 5
v 17.5 60 5
vt 0 0
vt 0 0.15000000596046448
vt 0.3888888955116272 0
vt 0.3888888955116272 0.15000000596046448
vt 0.097222223877906799 0
vt 0.1944444477558136 0
vt 0.2916666567325592 0
vt 0.2916666567325592 0.15000000596046448
vt 0.1944444477558136 0.15000000596046448
vt 0.097222223877906799 0.15000000596046448
vt 0.3888888955116272 0
vt 0.3888888955116272 0.15000000596046448
vt 0.5 0
vt 0.5 0.15000000596046448
vt 0.4444444477558136 0
vt 0.4444444477558136 0.15000000596046448
vt 0.5 0
vt 0.5 0.15000000596046448
vt 0.8888888955116272 0
vt 0.8888888955116272 0.15000000596046448
vt 0.59722220897674561 0
vt 0.69444441795349121 0
vt 0.79166668653488159 0
vt 0.79166668653488159 0.15000000596046448
vt 0.69444441795349121 0.15000000596046448
vt 0.59722220897674561 0.15000000596046448
vt 0.8888888955116272 0
vt 0.8888888955116272 0.15000000596046448
vt 1 0
vt 1 0.15000000596046448
vt 0.94444441795349121 0
vt 0.94444441795349121 0.15000000596046448
vt 0 0
vt 0 1
vt 0.3888888955116272 0
vt 0.3888888955116272 1
vt 0.097222223877906799 0
vt 0.1944444477558136 0
vt 0.2916666567325592 0
vt 0.3888888955116272 0.5
vt 0.1944444477558136 1
vt 0 0.5
vt 0.2916666567325592 1
vt 0.097222223877906799 1
vt 0 0
vt 0 1
vt 0.3888888955116272 0
vt 0.3888888955116272 1
vt 0.097222223877906799 0
vt 0.1944444477558136 0
vt 0.2916666567325592 0
vt 0.3888888955116272 0.5
vt 0.1944444477558136 1
vt 0 0.5
vt 0.2916666567325592 1
vt 0.097222223877906799 1
vn 0 -1 0
vn 0 -1 0
vn 0 -1 0
vn 0 -1 0
vn 0 -1 0
vn 0 -1 0
vn 0 -1 0
vn 0 -1 0
vn 0 -1 0
vn 0 -1 0
vn 1 0 0
vn 1 0 0
vn 1 0 0
vn 1 0 0
vn 1 0 0
vn 1 0 0
vn 0 1 0
vn 0 1 0
vn 0 1 0
vn 0 1 0
vn 0 1 0
vn 0 1 0
vn 0 1 0
vn 0 1 0
vn 0 1 0
vn 0 1 0
vn -1 0 0
vn -1 0 0
vn -1 0 0
vn -1 0 0
vn -1 0 0
vn -1 0 0
vn 0 0 -1
vn 0 0 -1
vn 0 0 -1
vn 0 0 -1
vn 0 0 -1
vn 0 0 -1
vn 0 0 -1
vn 0 0 -1
vn 0 0 -1
vn 0 0 -1
vn 0 0 -1
vn 0 0 -1
vn 0 0 1
vn 0 0 1
vn 0 0 1
vn 0 0 1
vn 0 0 1
vn 0 0 1
vn 0 0 1
vn 0 0 1
vn 0 0 1
vn 0 0 1
vn 0 0 1
vn 0 0 1
f 173/173/173 178/178/178 170/170/170 169/169/169
f 178/178/178 173/173/173 174/174/174 177/177/177
f 171/171/171 172/172/172 176/176/176 175/175/175
f 175/175/175 176/176/176 177/177/177 174/174/174
f 180/180/180 179/179/179 183/183/183 184/184/184
f 181/181/181 182/182/182 184/184/184 183/183/183
f 189/189/189 194/194/194 186/186/186 185/185/185
f 194/194/194 189/189/189 190/190/190 193/193/193
f 187/187/187 188/188/188 192/192/192 191/191/191
f 191/191/191 192/192/192 193/193/193 190/190/190
f 196/196/196 195/195/195 199/199/199 200/200/200
f 197/197/197 198/198/198 200/200/200 199/199/199
f 210/210/210 205/205/205 201/201/201
f 210/210/210 206/206/206 205/205/205
f 202/202/202 212/212/212 210/210/210
f 210/210/210 212/212/212 209/209/209
f 208/208/208 206/206/206 210/210/210
f 208/208/208 203/203/203 207/207/207
f 210/210/210 209/209/209 208/208/208
f 208/208/208 209/209/209 211/211/211
f 208/208/208 211/211/211 204/204/204
f 207/207/207 206/206/206 208/208/208
f 222/222/222 213/213/213 217/217/217
f 222/222/222 217/217/217 218/218/218
f 214/214/214 222/222/222 224/224/224
f 222/222/222 221/221/221 224/224/224
f 220/220/220 222/222/222 218/218/218
f 220/220/220 219/219/219 215/215/215
f 222/222/222 220/220/220 221/221/221
f 220/220/220 223/223/223 221/221/221
f 220/220/220 216/216/216 223/223/223
f 219/219/219 220/220/220 218/218/218
usemtl lv
v 0 80 0
v 0 80 5
v 70 80 0
v 70 80 5
v 17.5 80 0
v 35 80 0
v 52.5 80 0
v 52.5 80 5
v 35 80 5
v 17.5 80 5
v 70 80 0
v 70 80 5
v 70 60 0
v 70 60 5
v 70 70 0
v 70 70 5
v 70 60 0
v 70 60 5
v 0 60 0
v 0 60 5
v 52.5 60 0
v 35 60 0
v 17.5 60 0
v 17.5 60 5
v 35 60 5
v 52.5 60 5
v 0 60 0
v 0 60 5
v 0 80 0
v 0 80 5
v 0 70 0
v 0 70 5
v 0 80 0
v 0 60 0
v 70 80 0
v 70 60 0
v 17.5 80 0
v 35 80 0
v 52.5 80 0
v 70 70 0
v 35 60 0
v 0 70 0
v 52.5 60 0
v 17.5 60 0
v 0 80 5
v 0 60 5
v 70 80 5
v 70 60 5
v 17.5 80 5
v 35 80 5
v 52.5 80 5
v 70 70 5
v 35 60 5
v 0 70 5
v 52.5 60 5
v 17.5 60 5
vt 0 0
vt 0 0.15000000596046448
vt 0.3888888955116272 0
vt 0.3888888955116272 0.15000000596046448
vt 0.097222223877906799 0
vt 0.1944444477558136 0
vt 0.2916666567325592 0
vt 0.2916666567325592 0.15000000596046448
vt 0.1944444477558136 0.15000000596046448
vt 0.097222223877906799 0.15000000596046448
vt 0.3888888955116272 0
vt 0.3888888955116272 0.15000000596046448
vt 0.5 0
vt 0.5 0.15000000596046448
vt 0.4444444477558136 0
vt 0.4444444477558136 0.15000000596046448
vt 0.5 0
vt 0.5 0.15000000596046448
vt 0.8888888955116272 0
vt 0.8888888955116272 0.15000000596046448
vt 0.59722220897674561 0
vt 0.69444441795349121 0
vt 0.79166668653488159 0
vt 0.79166668653488159 0.15000000596046448
vt 0.69444441795349121 0.15000000596046448
vt 0.59722220897674561 0.15000000596046448
vt 0.8888888955116272 0
vt 0.8888888955116272 0.15000000596046448
vt 1 0
vt 1 0.15000000596046448
vt 0.94444441795349121 0
vt 0.94444441795349121 0.15000000596046448
vt 0 0
vt 0 1
vt 0.3888888955116272 0
vt 0.3888888955116272 1
vt 0.097222223877906799 0
vt 0.1944444477558136 0
vt 0.2916666567325592 0
vt 0.3888888955116272 0.5
vt 0.1944444477558136 1
vt 0 0.5
vt 0.2916666567325592 1
vt 0.097222223877906799 1
vt 0 0
vt 0 1
vt 0.3888888955116272 0
vt 0.3888888955116272 1
vt 0.097222223877906799 0
vt 0.1944444477558136 0
vt 0.2916666567325592 0
vt 0.3888888955116272 0.5
vt 0.1944444477558136 1
vt 0 0.5
vt 0.2916666567325592 1
vt 0.097222223877906799 1
vn 0 1 0
vn 0 1 0
vn 0 1 0
vn 0 1 0
vn 0 1 0
vn 0 1 0
vn 0 1 0
vn 0 1 0
vn 0 1 0
vn 0 1 0
vn 1 0 0
vn 1 0 0
vn 1 0 0
vn 1 0 0
vn 1 0 0
vn 1 0 0
vn 0 -1 0
vn 0 -1 0
vn 0 -1 0
vn 0 -1 0
vn 0 -1 0
vn 0 -1 0
vn 0 -1 0
vn 0 -1 0
vn 0 -1 0
vn 0 -1 0
vn -1 0 0
vn -1 0 0
vn -1 0 0
vn -1 0 0
vn -1 0 0
vn -1 0 0
vn 0 0 -1
vn 0 0 -1
vn 0 0 -1
vn 0 0 -1
vn 0 0 -1
vn 0 0 -1
vn 0 0 -1
vn 0 0 -1
vn 0 0 -1
vn 0 0 -1
vn 0 0 -1
vn 0 0 -1
vn 0 0 1
vn 0 0 1
vn 0 0 1
vn 0 0 1
vn 0 0 1
vn 0 0 1
vn 0 0 1
vn 0 0 1
vn 0 0 1
vn 0 0 1
vn 0 0 1
vn 0 0 1
f 229/229/229 225/225/225 226/226/226 234/234/234
f 234/234/234 233/233/233 230/230/230 229/229/229
f 227/227/227 231/231/231 232/232/232 228/228/228
f 231/231/231 230/230/230 233/233/233 232/232/232
f 236/236/236 240/240/240 239/239/239 235/235/235
f 237/237/237 239/239/239 240/240/240 238/238/238
f 245/245/245 241/241/241 242/242/242 250/250/250
f 250/250/250 249/249/249 246/246/246 245/245/245
f 243/243/243 247/247/247 248/248/248 244/244/244
f 247/247/247 246/246/246 249/249/249 248/248/248
f 252/252/252 256/256/256 255/255/255 251/251/251
f 253/253/253 255/255/255 256/256/256 254/254/254
f 266/266/266 257/257/257 261/261/261
f 266/266/266 261/261/261 262/262/262
f 258/258/258 266/266/266 268/268/268
f 266/266/266 265/265/265 268/268/268
f 264/264/264 266/266/266 262/262/262
f 264/264/264 263/263/263 259/259/259
f 266/266/266 264/264/264 265/265/265
f 264/264/264 267/267/267 265/265/265
f 264/264/264 260/260/260 267/267/267
f 263/263/263 264/264/264 262/262/262
f 278/278/278 273/273/273 269/269/269
f 278/278/278 274/274/274 273/273/273
f 270/270/270 280/280/280 278/278/278
f 278/278/278 280/280/280 277/277/277
f 276/276/276 274/274/274 278/278/278
f 276/276/276 271/271/271 275/275/275
f 278/278/278 277/277/277 276/276/276
f 276/276/276 277/277/277 279/279/279
f 276/276/276 279/279/279 272/272/272
f 275/275/275 274/274/274 276/276/276
usemtl cheng
v 0 40 0
v 0 40 5
v 70 40 0
v 70 40 5
v 17.5 40 0
v 35 40 0
v 52.5 40 0
v 52.5 40 5
v 35 40 5
v 17.5 40 5
v 70 40 0
v 70 40 5
v 70 20 0
v 70 20 5
v 70 30 0
v 70 30 5
v 70 20 0
v 70 20 5
v 0 20 0
v 0 20 5
v 52.5 20 0
v 35 20 0
v 17.5 20 0
v 17.5 20 5
v 35 20 5
v 52.5 20 5
v 0 20 0
v 0 20 5
v 0 40 0
v 0 40 5
v 0 30 0
v 0 30 5
v 0 40 0
v 0 20 0
v 70 40 0
v 70 20 0
v 17.5 40 0
v 35 40 0
v 52.5 40 0
v 70 30 0
v 35 20 0
v 0 30 0
v 52.5 20 0
v 17.5 20 0
v 0 40 5
v 0 20 5
v 70 40 5
v 70 20 5
v 17.5 40 5
v 35 40 5
v 52.5 40 5
v 70 30 5
v 35 20 5
v 0 30 5
v 52.5 20 5
v 17.5 20 5
vt 0 0
vt 0 0.15000000596046448
vt 0.3888888955116272 0
vt 0.3888888955116272 0.15000000596046448
vt 0.097222223877906799 0
vt 0.1944444477558136 0
vt 0.2916666567325592 0
vt 0.2916666567325592 0.15000000596046448
vt 0.1944444477558136 0.15000000596046448
vt 0.097222223877906799 0.15000000596046448
vt 0.3888888955116272 0
vt 0.3888888955116272 0.15000000596046448
vt 0.5 0
vt 0.5 0.15000000596046448
vt 0.4444444477558136 0
vt 0.4444444477558136 0.15000000596046448
vt 0.5 0
vt 0.5 0.15000000596046448
vt 0.8888888955116272 0
vt 0.8888888955116272 0.15000000596046448
vt 0.59722220897674561 0
vt 0.69444441795349121 0
vt 0.79166668653488159 0
vt 0.79166668653488159 0.15000000596046448
vt 0.69444441795349121 0.15000000596046448
vt 0.59722220897674561 0.15000000596046448
vt 0.8888888955116272 0
vt 0.8888888955116272 0.15000000596046448
vt 1 0
vt 1 0.15000000596046448
vt 0.94444441795349121 0
vt 0.94444441795349121 0.15000000596046448
vt 0 0
vt 0 1
vt 0.3888888955116272 0
vt 0.3888888955116272 1
vt 0.097222223877906799 0
vt 0.1944444477558136 0
vt 0.2916666567325592 0
vt 0.3888888955116272 0.5
vt 0.1944444477558136 1
vt 0 0.5
vt 0.2916666567325592 1
vt 0.097222223877906799 1
vt 0 0
vt 0 1
vt 0.3888888955116272 0
vt 0.3888888955116272 1
vt 0.097222223877906799 0
vt 0.1944444477558136 0
vt 0.2916666567325592 0
vt 0.3888888955116272 0.5
vt 0.1944444477558136 1
vt 0 0.5
vt 0.2916666567325592 1
vt 0.097222223877906799 1
vn 0 1 0
vn 0 1 0
vn 0 1 0
vn 0 1 0
vn 0 1 0
vn 0 1 0
vn 0 1 0
vn 0 1 0
vn 0 1 0
vn 0 1 0
vn 1 0 0
vn 1 0 0
vn 1 0 0
vn 1 0 0
vn 1 0 0
vn 1 0 0
vn 0 -1 0
vn 0 -1 0
vn 0 -1 0
vn 0 -1 0
vn 0 -1 0
vn 0 -1 0
vn 0 -1 0
vn 0 -1 0
vn 0 -1 0
vn 0 -1 0
vn -1 0 0
vn -1 0 0
vn -1 0 0
vn -1 0 0
vn -1 0 0
vn -1 0 0
vn 0 0 -1
vn 0 0 -1
vn 0 0 -1
vn 0 0 -1
vn 0 0 -1
vn 0 0 -1
vn 0 0 -1
vn 0 0 -1
vn 0 0 -1
vn 0 0 -1
vn 0 0 -1
vn 0 0 -1
vn 0 0 1
vn 0 0 1
vn 0 0 1
vn 0 0 1
vn 0 0 1
vn 0 0 1
vn 0 0 1
vn 0 0 1
vn 0 0 1
vn 0 0 1
vn 0 0 1
vn 0 0 1
f 285/285/285 281/281/281 282/282/282 290/290/290
f 290/290/290 289/289/289 286/286/286 285/285/285
f 283/283/283 287/287/287 288/288/288 284/284/284
f 287/287/287 286/286/286 289/289/289 288/288/288
f 292/292/292 296/296/296 295/295/295 291/291/291
f 293/293/293 295/295/295 296/296/296 294/294/294
f 301/301/301 297/297/297 298/298/298 306/306/306
f 306/306/306 305/305/305 302/302/302 301/301/301
f 299/299/299 303/303/303 304/304/304 300/300/300
f 303/303/303 302/302/302 305/305/305 304/304/304
f 308/308/308 312/312/312 311/311/311 307/307/307
f 309/309/309 311/311/311 312/312/312 310/310/310
f 322/322/322 313/313/313 317/317/317
f 322/322/322 317/317/317 318/318/318
f 314/314/314 322/322/322 324/324/324
f 322/322/322 321/321/321 324/324/324
f 320/320/320 322/322/322 318/318/318
f 320/320/320 319/319/319 315/315/315
f 322/322/322 320/320/320 321/321/321
f 320/320/320 323/323/323 321/321/321
f 320/320/320 316/316/316 323/323/323
f 319/319/319 320/320/320 318/318/318
f 334/334/334 329/329/329 325/325/325
f 334/334/334 330/330/330 329/329/329
f 326/326/326 336/336/336 334/334/334
f 334/334/334 336/336/336 333/333/333
f 332/332/332 330/330/330 334/334/334
f 332/332/332 327/327/327 331/331/331
f 334/334/334 333/333/333 332/332/332
f 332/332/332 333/333/333 335/335/335
f 332/332/332 335/335/335 328/328/328
f 331/331/331 330/330/330 332/332/332
usemtl hong
v 0 0 0
v 0 0 5
v 70 0 0
v 70 0 5
v 17.5 0 0
v 35 0 0
v 52.5 0 0
v 52.5 0 5
v 35 0 5
v 17.5 0 5
v 70 0 0
v 70 0 5
v 70 20 0
v 70 20 5
v 70 10 0
v 70 10 5
v 70 20 0
v 70 20 5
v 0 20 0
v 0 20 5
v 52.5 20 0
v 35 20 0
v 17.5 20 0
v 17.5 20 5
v 35 20 5
v 52.5 20 5
v 0 20 0
v 0 20 5
v 0 0 0
v 0 0 5
v 0 10 0
v 0 10 5
v 0 0 0
v 0 20 0
v 70 0 0
v 70 20 0
v 17.5 0 0
v 35 0 0
v 52.5 0 0
v 70 10 0
v 35 20 0
v 0 10 0
v 52.5 20 0
v 17.5 20 0
v 0 0 5
v 0 20 5
v 70 0 5
v 70 20 5
v 17.5 0 5
v 35 0 5
v 52.5 0 5
v 70 10 5
v 35 20 5
v 0 10 5
v 52.5 20 5
v 17.5 20 5
vt 0 0
vt 0 0.15000000596046448
vt 0.3888888955116272 0
vt 0.3888888955116272 0.15000000596046448
vt 0.097222223877906799 0
vt 0.1944444477558136 0
vt 0.2916666567325592 0
vt 0.2916666567325592 0.15000000596046448
vt 0.1944444477558136 0.15000000596046448
vt 0.097222223877906799 0.15000000596046448
vt 0.3888888955116272 0
vt 0.3888888955116272 0.15000000596046448
vt 0.5 0
vt 0.5 0.15000000596046448
vt 0.4444444477558136 0
vt 0.4444444477558136 0.15000000596046448
vt 0.5 0
vt 0.5 0.15000000596046448
vt 0.8888888955116272 0
vt 0.8888888955116272 0.15000000596046448
vt 0.59722220897674561 0
vt 0.69444441795349121 0
vt 0.79166668653488159 0
vt 0.79166668653488159 0.15000000596046448
vt 0.69444441795349121 0.15000000596046448
vt 0.59722220897674561 0.15000000596046448
vt 0.8888888955116272 0
vt 0.8888888955116272 0.15000000596046448
vt 1 0
vt 1 0.15000000596046448
vt 0.94444441795349121 0
vt 0.94444441795349121 0.15000000596046448
vt 0 0
vt 0 1
vt 0.3888888955116272 0
vt 0.3888888955116272 1
vt 0.097222223877906799 0
vt 0.1944444477558136 0
vt 0.2916666567325592 0
vt 0.3888888955116272 0.5
vt 0.1944444477558136 1
vt 0 0.5
vt 0.2916666567325592 1
vt 0.097222223877906799 1
vt 0 0
vt 0 1
vt 0.3888888955116272 0
vt 0.3888888955116272 1
vt 0.097222223877906799 0
vt 0.1944444477558136 0
vt 0.2916666567325592 0
vt 0.3888888955116272 0.5
vt 0.1944444477558136 1
vt 0 0.5
vt 0.2916666567325592 1
vt 0.097222223877906799 1
vn 0 -1 0
vn 0 -1 0
vn 0 -1 0
vn 0 -1 0
vn 0 -1 0
vn 0 -1 0
vn 0 -1 0
vn 0 -1 0
vn 0 -1 0
vn 0 -1 0
vn 1 0 0
vn 1 0 0
vn 1 0 0
vn 1 0 0
vn 1 0 0
vn 1 0 0
vn 0 1 0
vn 0 1 0
vn 0 1 0
vn 0 1 0
vn 0 1 0
vn 0 1 0
vn 0 1 0
vn 0 1 0
vn 0 1 0
vn 0 1 0
vn -1 0 0
vn -1 0 0
vn -1 0 0
vn -1 0 0
vn -1 0 0
vn -1 0 0
vn 0 0 -1
vn 0 0 -1
vn 0 0 -1
vn 0 0 -1
vn 0 0 -1
vn 0 0 -1
vn 0 0 -1
vn 0 0 -1
vn 0 0 -1
vn 0 0 -1
vn 0 0 -1
vn 0 0 -1
vn 0 0 1
vn 0 0 1
vn 0 0 1
vn 0 0 1
vn 0 0 1
vn 0 0 1
vn 0 0 1
vn 0 0 1
vn 0 0 1
vn 0 0 1
vn 0 0 1
vn 0 0 1
f 341/341/341 346/346/346 338/338/338 337/337/337
f 346/346/346 341/341/341 342/342/342 345/345/345
f 339/339/339 340/340/340 344/344/344 343/343/343
f 343/343/343 344/344/344 345/345/345 342/342/342
f 348/348/348 347/347/347 351/351/351 352/352/352
f 349/349/349 350/350/350 352/352/352 351/351/351
f 357/357/357 362/362/362 354/354/354 353/353/353
f 362/362/362 357/357/357 358/358/358 361/361/361
f 355/355/355 356/356/356 360/360/360 359/359/359
f 359/359/359 360/360/360 361/361/361 358/358/358
f 364/364/364 363/363/363 367/367/367 368/368/368
f 365/365/365 366/366/366 368/368/368 367/367/367
f 378/378/378 373/373/373 369/369/369
f 378/378/378 374/374/374 373/373/373
f 370/370/370 380/380/380 378/378/378
f 378/378/378 380/380/380 377/377/377
f 376/376/376 374/374/374 378/378/378
f 376/376/376 371/371/371 375/375/375
f 378/378/378 377/377/377 376/376/376
f 376/376/376 377/377/377 379/379/379
f 376/376/376 379/379/379 372/372/372
f 375/375/375 374/374/374 376/376/376
f 390/390/390 381/381/381 385/385/385
f 390/390/390 385/385/385 386/386/386
f 382/382/382 390/390/390 392/392/392
f 390/390/390 389/389/389 392/392/392
f 388/388/388 390/390/390 386/386/386
f 388/388/388 387/387/387 383/383/383
f 390/390/390 388/388/388 389/389/389
f 388/388/388 391/391/391 389/389/389
f 388/388/388 384/384/384 391/391/391
f 387/387/387 388/388/388 386/386/386
