solid floating_island
  facet normal 0 0 0
    outer loop
      vertex 0 0 0
      vertex 1 0 0
      vertex 1 1 0
    endloop
  endfacet
  facet normal 0 0 0
    outer loop
      vertex 0 0 0
      vertex 1 1 0
      vertex 0 1 0
    endloop
  endfacet
  facet normal 0 0 0
    outer loop
      vertex 0 0 0.1
      vertex 1 1 0.1
      vertex 1 0 0.1
    endloop
  endfacet
  facet normal 0 0 0
    outer loop
      vertex 0 0 0.1
      vertex 0 1 0.1
      vertex 1 1 0.1
    endloop
  endfacet
  facet normal 0 0 0
    outer loop
      vertex 0 0 0
      vertex 0 0 0.1
      vertex 1 0 0.1
    endloop
  endfacet
  facet normal 0 0 0
    outer loop
      vertex 0 0 0
      vertex 1 0 0.1
      vertex 1 0 0
    endloop
  endfacet
  facet normal 0 0 0
    outer loop
      vertex 1 0 0
      vertex 1 0 0.1
      vertex 1 1 0.1
    endloop
  endfacet
  facet normal 0 0 0
    outer loop
      vertex 1 0 0
      vertex 1 1 0.1
      vertex 1 1 0
    endloop
  endfacet
  facet normal 0 0 0
    outer loop
      vertex 1 1 0
      vertex 1 1 0.1
      vertex 0 1 0.1
    endloop
  endfacet
  facet normal 0 0 0
    outer loop
      vertex 1 1 0
      vertex 0 1 0.1
      vertex 0 1 0
    endloop
  endfacet
  facet normal 0 0 0
    outer loop
      vertex 0 1 0
      vertex 0 1 0.1
      vertex 0 0 0.1
    endloop
  endfacet
  facet normal 0 0 0
    outer loop
      vertex 0 1 0
      vertex 0 0 0.1
      vertex 0 0 0
    endloop
  endfacet

  facet normal 0 0 0
    outer loop
      vertex 0 0 0.6
      vertex 1 0 0.6
      vertex 1 1 0.6
    endloop
  endfacet
  facet normal 0 0 0
    outer loop
      vertex 0 0 0.6
      vertex 1 1 0.6
      vertex 0 1 0.6
    endloop
  endfacet
  facet normal 0 0 0
    outer loop
      vertex 0 0 0.8
      vertex 1 1 0.8
      vertex 1 0 0.8
    endloop
  endfacet
  facet normal 0 0 0
    outer loop
      vertex 0 0 0.8
      vertex 0 1 0.8
      vertex 1 1 0.8
    endloop
  endfacet
  facet normal 0 0 0
    outer loop
      vertex 0 0 0.6
      vertex 0 0 0.8
      vertex 1 0 0.8
    endloop
  endfacet
  facet normal 0 0 0
    outer loop
      vertex 0 0 0.6
      vertex 1 0 0.8
      vertex 1 0 0.6
    endloop
  endfacet
  facet normal 0 0 0
    outer loop
      vertex 1 0 0.6
      vertex 1 0 0.8
      vertex 1 1 0.8
    endloop
  endfacet
  facet normal 0 0 0
    outer loop
      vertex 1 0 0.6
      vertex 1 1 0.8
      vertex 1 1 0.6
    endloop
  endfacet
  facet normal 0 0 0
    outer loop
      vertex 1 1 0.6
      vertex 1 1 0.8
      vertex 0 1 0.8
    endloop
  endfacet
  facet normal 0 0 0
    outer loop
      vertex 1 1 0.6
      vertex 0 1 0.8
      vertex 0 1 0.6
    endloop
  endfacet
  facet normal 0 0 0
    outer loop
      vertex 0 1 0.6
      vertex 0 1 0.8
      vertex 0 0 0.8
    endloop
  endfacet
  facet normal 0 0 0
    outer loop
      vertex 0 1 0.6
      vertex 0 0 0.8
      vertex 0 0 0.6
    endloop
  endfacet

  facet normal 0 0 0
    outer loop
      vertex 1.5 0 0.6
      vertex 2.5 0 0.6
      vertex 2.5 1 0.6
    endloop
  endfacet
  facet normal 0 0 0
    outer loop
      vertex 1.5 0 0.6
      vertex 2.5 1 0.6
      vertex 1.5 1 0.6
    endloop
  endfacet
  facet normal 0 0 0
    outer loop
      vertex 1.5 0 0.8
      vertex 2.5 1 0.8
      vertex 2.5 0 0.8
    endloop
  endfacet
  facet normal 0 0 0
    outer loop
      vertex 1.5 0 0.8
      vertex 1.5 1 0.8
      vertex 2.5 1 0.8
    endloop
  endfacet
  facet normal 0 0 0
    outer loop
      vertex 1.5 0 0.6
      vertex 1.5 0 0.8
      vertex 2.5 0 0.8
    endloop
  endfacet
  facet normal 0 0 0
    outer loop
      vertex 1.5 0 0.6
      vertex 2.5 0 0.8
      vertex 2.5 0 0.6
    endloop
  endfacet
  facet normal 0 0 0
    outer loop
      vertex 2.5 0 0.6
      vertex 2.5 0 0.8
      vertex 2.5 1 0.8
    endloop
  endfacet
  facet normal 0 0 0
    outer loop
      vertex 2.5 0 0.6
      vertex 2.5 1 0.8
      vertex 2.5 1 0.6
    endloop
  endfacet
  facet normal 0 0 0
    outer loop
      vertex 2.5 1 0.6
      vertex 2.5 1 0.8
      vertex 1.5 1 0.8
    endloop
  endfacet
  facet normal 0 0 0
    outer loop
      vertex 2.5 1 0.6
      vertex 1.5 1 0.8
      vertex 1.5 1 0.6
    endloop
  endfacet
  facet normal 0 0 0
    outer loop
      vertex 1.5 1 0.6
      vertex 1.5 1 0.8
      vertex 1.5 0 0.8
    endloop
  endfacet
  facet normal 0 0 0
    outer loop
      vertex 1.5 1 0.6
      vertex 1.5 0 0.8
      vertex 1.5 0 0.6
    endloop
  endfacet
endsolid floating_island
